<mxfile host="app.diagrams.net" modified="2024-02-05T13:35:45.056Z" agent="Mozilla/5.0 (Windows NT 10.0; Win64; x64) AppleWebKit/537.36 (KHTML, like Gecko) Chrome/120.0.0.0 Safari/537.36" etag="I0avj-CNmr5j0TA_7Yx9" version="23.1.1" type="device">
  <diagram id="C5RBs43oDa-KdzZeNtuy" name="Page-1">
    <mxGraphModel dx="1444" dy="896" grid="1" gridSize="10" guides="1" tooltips="1" connect="1" arrows="1" fold="1" page="1" pageScale="1" pageWidth="827" pageHeight="1169" math="0" shadow="0">
      <root>
        <mxCell id="WIyWlLk6GJQsqaUBKTNV-0" />
        <mxCell id="WIyWlLk6GJQsqaUBKTNV-1" parent="WIyWlLk6GJQsqaUBKTNV-0" />
        <mxCell id="hPv5yQj8xRdX4iQKh_BX-20" value="" style="edgeStyle=orthogonalEdgeStyle;rounded=0;orthogonalLoop=1;jettySize=auto;html=1;" edge="1" parent="WIyWlLk6GJQsqaUBKTNV-1" source="WIyWlLk6GJQsqaUBKTNV-3" target="hPv5yQj8xRdX4iQKh_BX-19">
          <mxGeometry relative="1" as="geometry" />
        </mxCell>
        <mxCell id="WIyWlLk6GJQsqaUBKTNV-3" value="Start" style="rounded=1;whiteSpace=wrap;html=1;fontSize=12;glass=0;strokeWidth=1;shadow=0;" parent="WIyWlLk6GJQsqaUBKTNV-1" vertex="1">
          <mxGeometry x="160" y="10" width="120" height="40" as="geometry" />
        </mxCell>
        <mxCell id="hPv5yQj8xRdX4iQKh_BX-5" value="" style="edgeStyle=orthogonalEdgeStyle;rounded=0;orthogonalLoop=1;jettySize=auto;html=1;" edge="1" parent="WIyWlLk6GJQsqaUBKTNV-1" source="hPv5yQj8xRdX4iQKh_BX-0" target="hPv5yQj8xRdX4iQKh_BX-4">
          <mxGeometry relative="1" as="geometry" />
        </mxCell>
        <mxCell id="hPv5yQj8xRdX4iQKh_BX-0" value="Muat Data" style="rounded=0;whiteSpace=wrap;html=1;" vertex="1" parent="WIyWlLk6GJQsqaUBKTNV-1">
          <mxGeometry x="160" y="170" width="120" height="60" as="geometry" />
        </mxCell>
        <mxCell id="hPv5yQj8xRdX4iQKh_BX-11" value="" style="edgeStyle=orthogonalEdgeStyle;rounded=0;orthogonalLoop=1;jettySize=auto;html=1;" edge="1" parent="WIyWlLk6GJQsqaUBKTNV-1" source="hPv5yQj8xRdX4iQKh_BX-4" target="hPv5yQj8xRdX4iQKh_BX-10">
          <mxGeometry relative="1" as="geometry" />
        </mxCell>
        <mxCell id="hPv5yQj8xRdX4iQKh_BX-4" value="Persiapkan Data Untuk SVM" style="rounded=0;whiteSpace=wrap;html=1;" vertex="1" parent="WIyWlLk6GJQsqaUBKTNV-1">
          <mxGeometry x="160" y="270" width="120" height="60" as="geometry" />
        </mxCell>
        <mxCell id="hPv5yQj8xRdX4iQKh_BX-13" value="" style="edgeStyle=orthogonalEdgeStyle;rounded=0;orthogonalLoop=1;jettySize=auto;html=1;" edge="1" parent="WIyWlLk6GJQsqaUBKTNV-1" source="hPv5yQj8xRdX4iQKh_BX-10" target="hPv5yQj8xRdX4iQKh_BX-12">
          <mxGeometry relative="1" as="geometry" />
        </mxCell>
        <mxCell id="hPv5yQj8xRdX4iQKh_BX-10" value="Bagi Data ke dalam Set Pelatihan dan Pengujian" style="whiteSpace=wrap;html=1;rounded=0;" vertex="1" parent="WIyWlLk6GJQsqaUBKTNV-1">
          <mxGeometry x="160" y="410" width="120" height="60" as="geometry" />
        </mxCell>
        <mxCell id="hPv5yQj8xRdX4iQKh_BX-23" value="" style="edgeStyle=orthogonalEdgeStyle;rounded=0;orthogonalLoop=1;jettySize=auto;html=1;" edge="1" parent="WIyWlLk6GJQsqaUBKTNV-1" source="hPv5yQj8xRdX4iQKh_BX-12" target="hPv5yQj8xRdX4iQKh_BX-22">
          <mxGeometry relative="1" as="geometry" />
        </mxCell>
        <mxCell id="hPv5yQj8xRdX4iQKh_BX-12" value="Latih Model SVM" style="rhombus;whiteSpace=wrap;html=1;rounded=0;" vertex="1" parent="WIyWlLk6GJQsqaUBKTNV-1">
          <mxGeometry x="160" y="540" width="120" height="80" as="geometry" />
        </mxCell>
        <mxCell id="hPv5yQj8xRdX4iQKh_BX-21" value="" style="edgeStyle=orthogonalEdgeStyle;rounded=0;orthogonalLoop=1;jettySize=auto;html=1;" edge="1" parent="WIyWlLk6GJQsqaUBKTNV-1" source="hPv5yQj8xRdX4iQKh_BX-19" target="hPv5yQj8xRdX4iQKh_BX-0">
          <mxGeometry relative="1" as="geometry" />
        </mxCell>
        <mxCell id="hPv5yQj8xRdX4iQKh_BX-19" value="Mount Google Drive" style="rounded=0;whiteSpace=wrap;html=1;" vertex="1" parent="WIyWlLk6GJQsqaUBKTNV-1">
          <mxGeometry x="160" y="80" width="120" height="60" as="geometry" />
        </mxCell>
        <mxCell id="hPv5yQj8xRdX4iQKh_BX-25" value="" style="edgeStyle=orthogonalEdgeStyle;rounded=0;orthogonalLoop=1;jettySize=auto;html=1;" edge="1" parent="WIyWlLk6GJQsqaUBKTNV-1" source="hPv5yQj8xRdX4iQKh_BX-22" target="hPv5yQj8xRdX4iQKh_BX-24">
          <mxGeometry relative="1" as="geometry" />
        </mxCell>
        <mxCell id="hPv5yQj8xRdX4iQKh_BX-22" value="Melakukan Prediksi" style="whiteSpace=wrap;html=1;rounded=0;" vertex="1" parent="WIyWlLk6GJQsqaUBKTNV-1">
          <mxGeometry x="160" y="710" width="120" height="60" as="geometry" />
        </mxCell>
        <mxCell id="hPv5yQj8xRdX4iQKh_BX-27" value="" style="edgeStyle=orthogonalEdgeStyle;rounded=0;orthogonalLoop=1;jettySize=auto;html=1;" edge="1" parent="WIyWlLk6GJQsqaUBKTNV-1" source="hPv5yQj8xRdX4iQKh_BX-24" target="hPv5yQj8xRdX4iQKh_BX-26">
          <mxGeometry relative="1" as="geometry" />
        </mxCell>
        <mxCell id="hPv5yQj8xRdX4iQKh_BX-24" value="Evaluasi Model" style="rhombus;whiteSpace=wrap;html=1;rounded=0;" vertex="1" parent="WIyWlLk6GJQsqaUBKTNV-1">
          <mxGeometry x="180" y="840" width="80" height="80" as="geometry" />
        </mxCell>
        <mxCell id="hPv5yQj8xRdX4iQKh_BX-26" value="End" style="rounded=1;whiteSpace=wrap;html=1;" vertex="1" parent="WIyWlLk6GJQsqaUBKTNV-1">
          <mxGeometry x="160" y="970" width="120" height="60" as="geometry" />
        </mxCell>
      </root>
    </mxGraphModel>
  </diagram>
</mxfile>
